<svg xmlns="http://www.w3.org/2000/svg" width="112.5" viewBox="0 0 112.5 112.5" height="112.5" version="1.0"><defs><clipPath id="a"><path d="M 0 0 L 112.003906 0 L 112.003906 112.003906 L 0 112.003906 Z M 0 0"/></clipPath><clipPath id="b"><path d="M 12.675781 40.726562 L 99.675781 40.726562 L 99.675781 71.476562 L 12.675781 71.476562 Z M 12.675781 40.726562"/></clipPath></defs><g clip-path="url(#a)" fill="#FFF"><path d="M 0 0 L 112.5 0 L 112.5 120 L 0 120 Z M 0 0"/><path d="M 0 0 L 112.5 0 L 112.5 112.5 L 0 112.5 Z M 0 0"/><path d="M 0 0 L 112.5 0 L 112.5 112.5 L 0 112.5 Z M 0 0"/></g><g clip-path="url(#b)"><path fill="#FF1616" d="M 99.675781 56.070312 C 99.675781 64.449219 92.859375 71.210938 84.417969 71.210938 L 27.929688 71.210938 C 19.488281 71.265625 12.675781 64.449219 12.675781 56.070312 C 12.675781 47.695312 19.488281 40.933594 27.929688 40.933594 L 84.359375 40.933594 C 92.859375 40.933594 99.675781 47.695312 99.675781 56.070312 Z M 99.675781 56.070312"/></g><path stroke-linecap="round" transform="translate(20.57 48.232) scale(.39375)" fill="#FF1616" stroke-linejoin="round" d="M 6.667166 6.661924 L 33.333836 6.661924 C 35.169154 6.661924 36.66717 8.169861 36.66717 9.995258 L 36.66717 29.99526 C 36.66717 31.830578 35.169154 33.328594 33.333836 33.328594 L 6.667166 33.328594 C 4.831848 33.328594 3.333832 31.830578 3.333832 29.99526 L 3.333832 9.995258 C 3.333832 8.169861 4.831848 6.661924 6.667166 6.661924 Z M 6.667166 6.661924" stroke="#FFF" stroke-width="2"/><path stroke-linecap="round" transform="translate(20.57 48.232) scale(.39375)" fill="#FF1616" stroke-linejoin="round" d="M 36.66717 9.995258 L 20.000501 21.661926 L 3.333832 9.995258" stroke="#FFF" stroke-width="2"/><g fill="#FFF"><g><g><path d="M 3.53125 -5.0625 C 3.125 -5.0625 2.800781 -4.890625 2.5625 -4.546875 C 2.332031 -4.210938 2.21875 -3.75 2.21875 -3.15625 C 2.21875 -1.9375 2.6875 -1.328125 3.625 -1.328125 C 3.90625 -1.328125 4.175781 -1.363281 4.4375 -1.4375 C 4.707031 -1.519531 4.976562 -1.613281 5.25 -1.71875 L 5.25 -0.265625 C 4.71875 -0.0234375 4.113281 0.09375 3.4375 0.09375 C 2.476562 0.09375 1.738281 -0.1875 1.21875 -0.75 C 0.707031 -1.3125 0.453125 -2.117188 0.453125 -3.171875 C 0.453125 -3.828125 0.578125 -4.40625 0.828125 -4.90625 C 1.078125 -5.414062 1.429688 -5.800781 1.890625 -6.0625 C 2.359375 -6.332031 2.910156 -6.46875 3.546875 -6.46875 C 4.234375 -6.46875 4.894531 -6.316406 5.53125 -6.015625 L 5 -4.671875 C 4.757812 -4.773438 4.519531 -4.863281 4.28125 -4.9375 C 4.050781 -5.019531 3.800781 -5.0625 3.53125 -5.0625 Z M 3.53125 -5.0625" transform="translate(37.207 59.53)"/></g></g></g><g fill="#FFF"><g><g><path d="M 5.3125 -2.484375 C 5.3125 -1.671875 5.09375 -1.035156 4.65625 -0.578125 C 4.21875 -0.128906 3.609375 0.09375 2.828125 0.09375 C 2.078125 0.09375 1.476562 -0.132812 1.03125 -0.59375 C 0.59375 -1.0625 0.375 -1.691406 0.375 -2.484375 C 0.375 -3.285156 0.59375 -3.910156 1.03125 -4.359375 C 1.46875 -4.804688 2.078125 -5.03125 2.859375 -5.03125 C 3.347656 -5.03125 3.773438 -4.925781 4.140625 -4.71875 C 4.515625 -4.507812 4.800781 -4.210938 5 -3.828125 C 5.207031 -3.441406 5.3125 -2.992188 5.3125 -2.484375 Z M 2.109375 -2.484375 C 2.109375 -2.054688 2.164062 -1.726562 2.28125 -1.5 C 2.394531 -1.28125 2.582031 -1.171875 2.84375 -1.171875 C 3.113281 -1.171875 3.300781 -1.28125 3.40625 -1.5 C 3.519531 -1.726562 3.578125 -2.054688 3.578125 -2.484375 C 3.578125 -2.898438 3.519531 -3.21875 3.40625 -3.4375 C 3.300781 -3.65625 3.113281 -3.765625 2.84375 -3.765625 C 2.582031 -3.765625 2.394531 -3.65625 2.28125 -3.4375 C 2.164062 -3.226562 2.109375 -2.910156 2.109375 -2.484375 Z M 2.109375 -2.484375" transform="translate(43.001 59.53)"/></g></g></g><g fill="#FFF"><g><g><path d="M 3.703125 0 L 3.703125 -2.703125 C 3.703125 -3.023438 3.65625 -3.269531 3.5625 -3.4375 C 3.46875 -3.601562 3.316406 -3.6875 3.109375 -3.6875 C 2.816406 -3.6875 2.609375 -3.570312 2.484375 -3.34375 C 2.359375 -3.113281 2.296875 -2.722656 2.296875 -2.171875 L 2.296875 0 L 0.59375 0 L 0.59375 -4.9375 L 1.875 -4.9375 L 2.09375 -4.328125 L 2.1875 -4.328125 C 2.332031 -4.566406 2.535156 -4.742188 2.796875 -4.859375 C 3.054688 -4.972656 3.351562 -5.03125 3.6875 -5.03125 C 4.226562 -5.03125 4.648438 -4.867188 4.953125 -4.546875 C 5.265625 -4.234375 5.421875 -3.789062 5.421875 -3.21875 L 5.421875 0 Z M 3.703125 0" transform="translate(48.691 59.53)"/></g></g></g><g fill="#FFF"><g><g><path d="M 3.015625 -1.265625 C 3.242188 -1.265625 3.519531 -1.320312 3.84375 -1.4375 L 3.84375 -0.1875 C 3.601562 -0.09375 3.378906 -0.0234375 3.171875 0.015625 C 2.960938 0.0664062 2.722656 0.09375 2.453125 0.09375 C 1.878906 0.09375 1.460938 -0.046875 1.203125 -0.328125 C 0.953125 -0.609375 0.828125 -1.039062 0.828125 -1.625 L 0.828125 -3.671875 L 0.234375 -3.671875 L 0.234375 -4.359375 L 0.984375 -4.890625 L 1.4375 -5.9375 L 2.546875 -5.9375 L 2.546875 -4.9375 L 3.765625 -4.9375 L 3.765625 -3.671875 L 2.546875 -3.671875 L 2.546875 -1.734375 C 2.546875 -1.421875 2.703125 -1.265625 3.015625 -1.265625 Z M 3.015625 -1.265625" transform="translate(54.674 59.53)"/></g></g></g><g fill="#FFF"><g><g><path d="M 3.8125 0 L 3.484375 -0.65625 L 3.453125 -0.65625 C 3.222656 -0.375 2.988281 -0.175781 2.75 -0.0625 C 2.507812 0.0390625 2.203125 0.09375 1.828125 0.09375 C 1.359375 0.09375 0.988281 -0.046875 0.71875 -0.328125 C 0.457031 -0.609375 0.328125 -1.003906 0.328125 -1.515625 C 0.328125 -2.035156 0.507812 -2.425781 0.875 -2.6875 C 1.238281 -2.945312 1.769531 -3.09375 2.46875 -3.125 L 3.296875 -3.140625 L 3.296875 -3.21875 C 3.296875 -3.625 3.09375 -3.828125 2.6875 -3.828125 C 2.320312 -3.828125 1.863281 -3.703125 1.3125 -3.453125 L 0.828125 -4.59375 C 1.398438 -4.882812 2.125 -5.03125 3 -5.03125 C 3.632812 -5.03125 4.125 -4.875 4.46875 -4.5625 C 4.820312 -4.25 5 -3.8125 5 -3.25 L 5 0 Z M 2.546875 -1.125 C 2.753906 -1.125 2.929688 -1.1875 3.078125 -1.3125 C 3.222656 -1.445312 3.296875 -1.617188 3.296875 -1.828125 L 3.296875 -2.203125 L 2.90625 -2.1875 C 2.34375 -2.164062 2.0625 -1.960938 2.0625 -1.578125 C 2.0625 -1.273438 2.222656 -1.125 2.546875 -1.125 Z M 2.15625 -5.421875 L 2.15625 -5.546875 C 2.601562 -6.023438 2.882812 -6.332031 3 -6.46875 C 3.125 -6.613281 3.222656 -6.738281 3.296875 -6.84375 L 5.171875 -6.84375 L 5.171875 -6.75 C 4.941406 -6.5625 4.617188 -6.320312 4.203125 -6.03125 C 3.796875 -5.75 3.488281 -5.546875 3.28125 -5.421875 Z M 2.15625 -5.421875" transform="translate(58.78 59.53)"/></g></g></g><g fill="#FFF"><g><g><path d="M 2.84375 0.09375 C 2.03125 0.09375 1.414062 -0.125 1 -0.5625 C 0.582031 -1 0.375 -1.628906 0.375 -2.453125 C 0.375 -3.265625 0.597656 -3.894531 1.046875 -4.34375 C 1.503906 -4.800781 2.144531 -5.03125 2.96875 -5.03125 C 3.550781 -5.03125 4.09375 -4.90625 4.59375 -4.65625 L 4.09375 -3.390625 C 3.882812 -3.484375 3.691406 -3.554688 3.515625 -3.609375 C 3.347656 -3.660156 3.164062 -3.6875 2.96875 -3.6875 C 2.695312 -3.6875 2.484375 -3.578125 2.328125 -3.359375 C 2.179688 -3.148438 2.109375 -2.847656 2.109375 -2.453125 C 2.109375 -1.660156 2.398438 -1.265625 2.984375 -1.265625 C 3.484375 -1.265625 3.960938 -1.410156 4.421875 -1.703125 L 4.421875 -0.34375 C 3.984375 -0.0507812 3.457031 0.09375 2.84375 0.09375 Z M 2.84375 0.09375" transform="translate(64.344 59.53)"/></g></g></g><g fill="#FFF"><g><g><path d="M 3.015625 -1.265625 C 3.242188 -1.265625 3.519531 -1.320312 3.84375 -1.4375 L 3.84375 -0.1875 C 3.601562 -0.09375 3.378906 -0.0234375 3.171875 0.015625 C 2.960938 0.0664062 2.722656 0.09375 2.453125 0.09375 C 1.878906 0.09375 1.460938 -0.046875 1.203125 -0.328125 C 0.953125 -0.609375 0.828125 -1.039062 0.828125 -1.625 L 0.828125 -3.671875 L 0.234375 -3.671875 L 0.234375 -4.359375 L 0.984375 -4.890625 L 1.4375 -5.9375 L 2.546875 -5.9375 L 2.546875 -4.9375 L 3.765625 -4.9375 L 3.765625 -3.671875 L 2.546875 -3.671875 L 2.546875 -1.734375 C 2.546875 -1.421875 2.703125 -1.265625 3.015625 -1.265625 Z M 3.015625 -1.265625" transform="translate(69.158 59.53)"/></g></g></g><g fill="#FFF"><g><g><path d="M 3.8125 0 L 3.484375 -0.65625 L 3.453125 -0.65625 C 3.222656 -0.375 2.988281 -0.175781 2.75 -0.0625 C 2.507812 0.0390625 2.203125 0.09375 1.828125 0.09375 C 1.359375 0.09375 0.988281 -0.046875 0.71875 -0.328125 C 0.457031 -0.609375 0.328125 -1.003906 0.328125 -1.515625 C 0.328125 -2.035156 0.507812 -2.425781 0.875 -2.6875 C 1.238281 -2.945312 1.769531 -3.09375 2.46875 -3.125 L 3.296875 -3.140625 L 3.296875 -3.21875 C 3.296875 -3.625 3.09375 -3.828125 2.6875 -3.828125 C 2.320312 -3.828125 1.863281 -3.703125 1.3125 -3.453125 L 0.828125 -4.59375 C 1.398438 -4.882812 2.125 -5.03125 3 -5.03125 C 3.632812 -5.03125 4.125 -4.875 4.46875 -4.5625 C 4.820312 -4.25 5 -3.8125 5 -3.25 L 5 0 Z M 2.546875 -1.125 C 2.753906 -1.125 2.929688 -1.1875 3.078125 -1.3125 C 3.222656 -1.445312 3.296875 -1.617188 3.296875 -1.828125 L 3.296875 -2.203125 L 2.90625 -2.1875 C 2.34375 -2.164062 2.0625 -1.960938 2.0625 -1.578125 C 2.0625 -1.273438 2.222656 -1.125 2.546875 -1.125 Z M 2.546875 -1.125" transform="translate(73.265 59.53)"/></g></g></g><g fill="#FFF"><g><g><path d="M 6.65625 0 L 6.65625 -2.6875 C 6.65625 -3.019531 6.609375 -3.269531 6.515625 -3.4375 C 6.429688 -3.601562 6.289062 -3.6875 6.09375 -3.6875 C 5.820312 -3.6875 5.625 -3.570312 5.5 -3.34375 C 5.382812 -3.125 5.328125 -2.773438 5.328125 -2.296875 L 5.328125 0 L 3.625 0 L 3.625 -2.6875 C 3.625 -3.019531 3.578125 -3.269531 3.484375 -3.4375 C 3.398438 -3.601562 3.257812 -3.6875 3.0625 -3.6875 C 2.789062 -3.6875 2.59375 -3.566406 2.46875 -3.328125 C 2.351562 -3.085938 2.296875 -2.703125 2.296875 -2.171875 L 2.296875 0 L 0.59375 0 L 0.59375 -4.9375 L 1.875 -4.9375 L 2.09375 -4.328125 L 2.1875 -4.328125 C 2.320312 -4.554688 2.515625 -4.726562 2.765625 -4.84375 C 3.015625 -4.96875 3.296875 -5.03125 3.609375 -5.03125 C 4.316406 -5.03125 4.816406 -4.8125 5.109375 -4.375 L 5.25 -4.375 C 5.382812 -4.582031 5.578125 -4.742188 5.828125 -4.859375 C 6.078125 -4.972656 6.351562 -5.03125 6.65625 -5.03125 C 7.238281 -5.03125 7.664062 -4.878906 7.9375 -4.578125 C 8.21875 -4.273438 8.359375 -3.820312 8.359375 -3.21875 L 8.359375 0 Z M 6.65625 0" transform="translate(78.83 59.53)"/></g></g></g><g fill="#FFF"><g><g><path d="M 2.96875 0.09375 C 2.144531 0.09375 1.503906 -0.125 1.046875 -0.5625 C 0.597656 -1 0.375 -1.625 0.375 -2.4375 C 0.375 -3.269531 0.582031 -3.910156 1 -4.359375 C 1.425781 -4.804688 2.03125 -5.03125 2.8125 -5.03125 C 3.5625 -5.03125 4.140625 -4.832031 4.546875 -4.4375 C 4.953125 -4.050781 5.15625 -3.492188 5.15625 -2.765625 L 5.15625 -2.015625 L 2.09375 -2.015625 C 2.101562 -1.734375 2.203125 -1.515625 2.390625 -1.359375 C 2.585938 -1.203125 2.851562 -1.125 3.1875 -1.125 C 3.476562 -1.125 3.75 -1.148438 4 -1.203125 C 4.257812 -1.265625 4.535156 -1.363281 4.828125 -1.5 L 4.828125 -0.28125 C 4.554688 -0.132812 4.273438 -0.0351562 3.984375 0.015625 C 3.703125 0.0664062 3.363281 0.09375 2.96875 0.09375 Z M 2.875 -3.875 C 2.675781 -3.875 2.507812 -3.804688 2.375 -3.671875 C 2.238281 -3.546875 2.160156 -3.347656 2.140625 -3.078125 L 3.59375 -3.078125 C 3.59375 -3.316406 3.523438 -3.507812 3.390625 -3.65625 C 3.265625 -3.800781 3.09375 -3.875 2.875 -3.875 Z M 2.875 -3.875" transform="translate(87.759 59.53)"/></g></g></g></svg>