<svg xmlns="http://www.w3.org/2000/svg" width="50" viewBox="0 0 37.5 37.5" height="50" version="1.0"><defs><clipPath id="a"><path d="M 1.34375 1.34375 L 35.84375 1.34375 L 35.84375 35.84375 L 1.34375 35.84375 Z M 1.34375 1.34375"/></clipPath></defs><g clip-path="url(#a)"><path fill="#D9D9D9" d="M 1.339844 18.589844 C 1.339844 9.0625 9.0625 1.339844 18.589844 1.339844 C 28.117188 1.339844 35.84375 9.0625 35.84375 18.589844 C 35.84375 28.117188 28.117188 35.84375 18.589844 35.84375 C 9.0625 35.84375 1.339844 28.117188 1.339844 18.589844"/></g><path fill="#737373" d="M 9.140625 18.523438 C 9.109375 18.832031 9.183594 19.113281 9.378906 19.308594 L 15.726562 25.660156 C 16.160156 26.09375 17.027344 25.933594 17.660156 25.300781 C 18.296875 24.664062 18.457031 23.800781 18.023438 23.363281 L 14.972656 20.316406 L 26.421875 20.316406 C 27.320312 20.316406 28.046875 19.589844 28.046875 18.691406 C 28.046875 17.796875 27.320312 17.070312 26.421875 17.070312 L 14.636719 17.070312 L 18.023438 13.679688 C 18.457031 13.246094 18.296875 12.382812 17.660156 11.746094 C 17.027344 11.113281 16.160156 10.953125 15.726562 11.386719 L 9.378906 17.738281 C 9.183594 17.929688 9.109375 18.214844 9.140625 18.523438"/></svg>