<svg xmlns="http://www.w3.org/2000/svg" width="50px" viewBox="0 0 37.5 37.5" height="50px" version="1.0"><defs><clipPath id="a"><path d="M 1.648438 1.648438 L 36.148438 1.648438 L 36.148438 36.148438 L 1.648438 36.148438 Z M 1.648438 1.648438"/></clipPath></defs><g clip-path="url(#a)"><path fill="#FF1616" d="M 36.15625 18.90625 C 36.15625 28.433594 28.433594 36.15625 18.90625 36.15625 C 9.378906 36.15625 1.652344 28.433594 1.652344 18.90625 C 1.652344 9.375 9.378906 1.652344 18.90625 1.652344 C 28.433594 1.652344 36.15625 9.375 36.15625 18.90625"/></g><path fill="#FFF" d="M 28.351562 18.972656 C 28.386719 18.664062 28.3125 18.378906 28.117188 18.183594 L 21.769531 11.835938 C 21.332031 11.402344 20.46875 11.5625 19.832031 12.195312 C 19.199219 12.828125 19.039062 13.695312 19.472656 14.128906 L 22.523438 17.179688 L 11.070312 17.179688 C 10.175781 17.179688 9.449219 17.90625 9.449219 18.804688 C 9.449219 19.699219 10.175781 20.425781 11.070312 20.425781 L 22.859375 20.425781 L 19.472656 23.8125 C 19.039062 24.25 19.199219 25.113281 19.832031 25.75 C 20.46875 26.382812 21.332031 26.542969 21.769531 26.109375 L 28.117188 19.757812 C 28.3125 19.5625 28.386719 19.28125 28.351562 18.972656"/></svg>