<svg xmlns="http://www.w3.org/2000/svg" width="100" viewBox="0 0 375 375" height="100" version="1.0"><path fill="#34B0BE" d="M 187.5 167.972656 C 176.75 167.972656 167.972656 176.75 167.972656 187.5 C 167.972656 198.25 176.75 207.027344 187.5 207.027344 C 198.253906 207.027344 207.027344 198.25 207.027344 187.5 C 207.027344 176.75 198.253906 167.972656 187.5 167.972656 Z M 246.066406 187.5 C 246.066406 179.414062 246.140625 171.402344 245.683594 163.328125 C 245.230469 153.953125 243.09375 145.632812 236.234375 138.78125 C 229.367188 131.910156 221.0625 129.785156 211.6875 129.332031 C 203.597656 128.875 195.585938 128.949219 187.515625 128.949219 C 179.429688 128.949219 171.417969 128.875 163.34375 129.332031 C 153.96875 129.785156 145.648438 131.921875 138.792969 138.78125 C 131.925781 145.648438 129.800781 153.953125 129.347656 163.328125 C 128.890625 171.414062 128.964844 179.429688 128.964844 187.5 C 128.964844 195.570312 128.890625 203.597656 129.347656 211.671875 C 129.800781 221.046875 131.9375 229.363281 138.792969 236.21875 C 145.664062 243.089844 153.96875 245.214844 163.34375 245.667969 C 171.429688 246.125 179.445312 246.050781 187.515625 246.050781 C 195.601562 246.050781 203.613281 246.125 211.6875 245.667969 C 221.0625 245.214844 229.378906 243.078125 236.234375 236.21875 C 243.105469 229.351562 245.230469 221.046875 245.683594 211.671875 C 246.152344 203.597656 246.066406 195.585938 246.066406 187.5 Z M 187.5 217.542969 C 170.875 217.542969 157.457031 204.125 157.457031 187.5 C 157.457031 170.875 170.875 157.457031 187.5 157.457031 C 204.125 157.457031 217.546875 170.875 217.546875 187.5 C 217.546875 204.125 204.125 217.542969 187.5 217.542969 Z M 218.773438 163.242188 C 214.894531 163.242188 211.757812 160.109375 211.757812 156.226562 C 211.757812 152.34375 214.894531 149.210938 218.773438 149.210938 C 222.65625 149.210938 225.792969 152.34375 225.792969 156.226562 C 225.792969 157.148438 225.613281 158.058594 225.261719 158.910156 C 224.90625 159.765625 224.390625 160.539062 223.738281 161.191406 C 223.085938 161.839844 222.3125 162.359375 221.460938 162.710938 C 220.609375 163.0625 219.695312 163.242188 218.773438 163.242188 Z M 218.773438 163.242188"/><path fill="#34B0BE" d="M 187.417969 290.460938 C 159.90625 290.460938 134 279.753906 114.5625 260.273438 C 95.082031 240.832031 84.375 214.929688 84.375 187.417969 C 84.375 159.90625 95.082031 134 114.5625 114.5625 C 134 95.082031 159.90625 84.375 187.417969 84.375 C 214.929688 84.375 240.832031 95.082031 260.273438 114.5625 C 279.753906 134.042969 290.460938 159.90625 290.460938 187.417969 C 290.460938 214.929688 279.753906 240.832031 260.273438 260.273438 C 240.832031 279.753906 214.929688 290.460938 187.417969 290.460938 Z M 187.417969 90.550781 C 161.554688 90.550781 137.214844 100.644531 118.929688 118.929688 C 100.644531 137.214844 90.550781 161.554688 90.550781 187.417969 C 90.550781 213.28125 100.644531 237.621094 118.929688 255.90625 C 137.214844 274.191406 161.554688 284.28125 187.417969 284.28125 C 213.28125 284.28125 237.621094 274.191406 255.90625 255.90625 C 274.191406 237.621094 284.28125 213.28125 284.28125 187.417969 C 284.28125 161.554688 274.191406 137.214844 255.90625 118.929688 C 237.621094 100.644531 213.28125 90.550781 187.417969 90.550781 Z M 187.417969 90.550781"/></svg>