<svg xmlns="http://www.w3.org/2000/svg" width="100" viewBox="0 0 375 375" height="100" version="1.0"><defs><clipPath id="a"><path d="M 125 119.945312 L 244 119.945312 L 244 239 L 125 239 Z M 125 119.945312"/></clipPath></defs><path fill="#34B0BE" d="M 187.417969 290.460938 C 159.90625 290.460938 134 279.753906 114.5625 260.273438 C 95.082031 240.832031 84.375 214.929688 84.375 187.417969 C 84.375 159.90625 95.082031 134 114.5625 114.5625 C 134 95.082031 159.90625 84.375 187.417969 84.375 C 214.929688 84.375 240.832031 95.082031 260.273438 114.5625 C 279.753906 134.042969 290.460938 159.90625 290.460938 187.417969 C 290.460938 214.929688 279.753906 240.832031 260.273438 260.273438 C 240.832031 279.753906 214.929688 290.460938 187.417969 290.460938 Z M 187.417969 90.550781 C 161.554688 90.550781 137.214844 100.644531 118.929688 118.929688 C 100.644531 137.214844 90.550781 161.554688 90.550781 187.417969 C 90.550781 213.28125 100.644531 237.621094 118.929688 255.90625 C 137.214844 274.191406 161.554688 284.28125 187.417969 284.28125 C 213.28125 284.28125 237.621094 274.191406 255.90625 255.90625 C 274.191406 237.621094 284.28125 213.28125 284.28125 187.417969 C 284.28125 161.554688 274.191406 137.214844 255.90625 118.929688 C 237.621094 100.644531 213.28125 90.550781 187.417969 90.550781 Z M 187.417969 90.550781"/><g clip-path="url(#a)"><path fill="#34B0BE" d="M 152.257812 238.070312 L 127.765625 238.070312 L 127.765625 159.203125 L 152.257812 159.203125 Z M 139.996094 148.445312 C 132.167969 148.445312 125.8125 141.957031 125.8125 134.128906 C 125.8125 130.367188 127.308594 126.757812 129.96875 124.097656 C 132.628906 121.4375 136.234375 119.945312 139.996094 119.945312 C 143.757812 119.945312 147.367188 121.4375 150.027344 124.097656 C 152.6875 126.757812 154.179688 130.367188 154.179688 134.128906 C 154.179688 141.957031 147.828125 148.445312 139.996094 148.445312 Z M 243.914062 238.070312 L 219.480469 238.070312 L 219.480469 199.679688 C 219.480469 190.527344 219.292969 178.796875 206.746094 178.796875 C 194.015625 178.796875 192.0625 188.734375 192.0625 199.019531 L 192.0625 238.070312 L 167.597656 238.070312 L 167.597656 159.203125 L 191.082031 159.203125 L 191.082031 169.960938 L 191.425781 169.960938 C 194.691406 163.765625 202.679688 157.226562 214.59375 157.226562 C 239.378906 157.226562 243.933594 173.546875 243.933594 194.746094 L 243.933594 238.070312 Z M 243.914062 238.070312"/></g></svg>