<svg xmlns="http://www.w3.org/2000/svg" width="100" viewBox="0 0 375 375" height="100" version="1.0"><path fill="#34B0BE" d="M 187.417969 290.460938 C 159.90625 290.460938 134 279.753906 114.5625 260.273438 C 95.082031 240.832031 84.375 214.929688 84.375 187.417969 C 84.375 159.90625 95.082031 134 114.5625 114.5625 C 134 95.082031 159.90625 84.375 187.417969 84.375 C 214.929688 84.375 240.832031 95.082031 260.273438 114.5625 C 279.753906 134.042969 290.460938 159.90625 290.460938 187.417969 C 290.460938 214.929688 279.753906 240.832031 260.273438 260.273438 C 240.832031 279.753906 214.929688 290.460938 187.417969 290.460938 Z M 187.417969 90.550781 C 161.554688 90.550781 137.214844 100.644531 118.929688 118.929688 C 100.644531 137.214844 90.550781 161.554688 90.550781 187.417969 C 90.550781 213.28125 100.644531 237.621094 118.929688 255.90625 C 137.214844 274.191406 161.554688 284.28125 187.417969 284.28125 C 213.28125 284.28125 237.621094 274.191406 255.90625 255.90625 C 274.191406 237.621094 284.28125 213.28125 284.28125 187.417969 C 284.28125 161.554688 274.191406 137.214844 255.90625 118.929688 C 237.621094 100.644531 213.28125 90.550781 187.417969 90.550781 Z M 187.417969 90.550781"/><path fill="#34B0BE" d="M 248.4375 149.75 C 243.953125 151.683594 239.078125 153.078125 234.050781 153.617188 C 239.269531 150.519531 243.175781 145.625 245.039062 139.847656 C 240.144531 142.761719 234.78125 144.800781 229.1875 145.882812 C 226.851562 143.386719 224.023438 141.394531 220.882812 140.035156 C 217.746094 138.679688 214.359375 137.980469 210.9375 137.988281 C 197.09375 137.988281 185.960938 149.210938 185.960938 162.976562 C 185.960938 164.914062 186.195312 166.847656 186.578125 168.707031 C 165.847656 167.621094 147.363281 157.71875 135.074219 142.558594 C 132.832031 146.382812 131.660156 150.738281 131.675781 155.171875 C 131.675781 163.84375 136.082031 171.488281 142.808594 175.984375 C 138.84375 175.828125 134.976562 174.742188 131.511719 172.808594 L 131.511719 173.117188 C 131.511719 185.257812 140.097656 195.324219 151.539062 197.636719 C 149.390625 198.195312 147.179688 198.480469 144.960938 198.484375 C 143.335938 198.484375 141.796875 198.324219 140.242188 198.105469 C 143.40625 208.007812 152.621094 215.199219 163.59375 215.433594 C 155.007812 222.15625 144.257812 226.113281 132.582031 226.113281 C 130.488281 226.113281 128.554688 226.039062 126.546875 225.804688 C 137.621094 232.910156 150.761719 237.011719 164.910156 237.011719 C 210.847656 237.011719 235.984375 198.953125 235.984375 165.921875 C 235.984375 164.839844 235.984375 163.753906 235.914062 162.671875 C 240.777344 159.109375 245.039062 154.703125 248.4375 149.75 Z M 248.4375 149.75"/></svg>